<svg width="398" height="167" viewBox="0 0 398 167" fill="none" xmlns="http://www.w3.org/2000/svg">
<path d="M3.19257 22.613C28.2038 29.9033 48.446 48.7051 76.6204 48.7051C104.795 48.7051 113.862 34.6037 131.957 34.6037C150.052 34.6037 162.212 62.8065 187.294 62.8065C212.376 62.8065 230.214 29.9033 255.401 29.9033C280.588 29.9033 315.405 81.6084 339.471 81.6084C363.537 81.6084 394.808 1.80627 394.808 1.80627" stroke="#05C283" stroke-width="2" stroke-linecap="round"/>
<path fill-rule="evenodd" clip-rule="evenodd" d="M3.19259 22.613C28.2038 29.9033 48.446 48.7051 76.6204 48.7051C104.795 48.7051 113.862 34.6037 131.957 34.6037C150.052 34.6037 162.212 62.8065 187.294 62.8065C212.376 62.8065 230.214 29.9033 255.401 29.9033C280.588 29.9033 315.405 81.6084 339.471 81.6084C363.537 81.6084 394.808 1.80627 394.808 1.80627V167H3.19259C3.19259 167 3.02567 30.5146 3.19259 22.613Z" fill="url(#paint0_linear_3_536)"/>
<circle cx="394" cy="4" r="4" fill="#07E098"/>
<circle cx="340.278" cy="80.9078" r="4" fill="#07E098"/>
<circle cx="256.209" cy="29.2028" r="4" fill="#07E098"/>
<circle cx="188.102" cy="62.106" r="4" fill="#07E098"/>
<circle cx="132.765" cy="33.9032" r="4" fill="#07E098"/>
<circle cx="77.4277" cy="48.0046" r="4" fill="#07E098"/>
<circle cx="4" cy="21.3687" r="4" fill="#07E098"/>
<defs>
<linearGradient id="paint0_linear_3_536" x1="3.10913" y1="1.80627" x2="3.10913" y2="167" gradientUnits="userSpaceOnUse">
<stop stop-color="#00E096" stop-opacity="0.326568"/>
<stop offset="1" stop-color="white" stop-opacity="0.01"/>
</linearGradient>
</defs>
</svg>
