<svg width="396" height="94" viewBox="0 0 396 94" fill="none" xmlns="http://www.w3.org/2000/svg">
<path d="M3.19257 28.5265C19.488 28.5265 54.8919 19.5334 71.4557 6.59104C88.0196 -6.35133 115.984 59.5909 135.228 59.5909C154.472 59.5909 168.437 59.5909 185.976 59.5909C203.516 59.5909 243.933 41.8445 265.467 41.8445C287.001 41.8445 309.511 45.3277 330.137 45.3277C350.764 45.3277 375.511 9.72468 394.808 9.72468" stroke="#007DD6" stroke-width="2" stroke-linecap="round"/>
<path fill-rule="evenodd" clip-rule="evenodd" d="M3.23547 28.5265C19.5291 28.5265 54.9291 19.5334 71.4912 6.59104C88.0532 -6.35133 114.218 59.5909 133.46 59.5909C152.702 59.5909 169.757 59.5909 187.294 59.5909C204.832 59.5909 233.87 42.5115 255.401 42.5115C276.933 42.5115 318.774 48.8994 339.471 42.5115C360.167 36.1237 375.513 9.72468 394.808 9.72468C394.682 15.3518 394.808 93.5496 394.808 93.5496L3.23547 92.7662C3.23547 92.7662 3.14966 34.9833 3.23547 28.5265Z" fill="url(#paint0_linear_3_546)"/>
<circle cx="392" cy="8.90784" r="4" fill="#0095FF"/>
<circle cx="340.278" cy="41.811" r="4" fill="#0095FF"/>
<circle cx="256.209" cy="41.811" r="4" fill="#0095FF"/>
<circle cx="188.102" cy="59.0461" r="4" fill="#0095FF"/>
<circle cx="132.765" cy="59.0461" r="4" fill="#0095FF"/>
<circle cx="77.4277" cy="4.2074" r="4" fill="#0095FF"/>
<circle cx="4" cy="27.7097" r="4" fill="#0095FF"/>
<defs>
<linearGradient id="paint0_linear_3_546" x1="3.19257" y1="4.90784" x2="3.19257" y2="93.5496" gradientUnits="userSpaceOnUse">
<stop stop-color="#009DFF" stop-opacity="0.31728"/>
<stop offset="1" stop-color="#0095FF" stop-opacity="0.01"/>
</linearGradient>
</defs>
</svg>
