<svg width="26" height="26" viewBox="0 0 26 26" fill="none" xmlns="http://www.w3.org/2000/svg">
<g clip-path="url(#clip0_3_463)">
<path d="M0.5 19.2501C0.5 19.9868 0.792658 20.6933 1.31359 21.2142C1.83453 21.7352 2.54107 22.0278 3.27778 22.0278H22.7222C23.4589 22.0278 24.1655 21.7352 24.6864 21.2142C25.2073 20.6933 25.5 19.9868 25.5 19.2501V15.7778H0.5V19.2501Z" fill="#138808"/>
<path d="M25.5 10.2222V6.74995C25.5 6.01323 25.2073 5.30669 24.6864 4.78576C24.1655 4.26483 23.4589 3.97217 22.7222 3.97217H3.27778C2.54107 3.97217 1.83453 4.26483 1.31359 4.78576C0.792658 5.30669 0.5 6.01323 0.5 6.74995L0.5 10.2222H25.5Z" fill="#FF9933"/>
<path d="M0.5 9.99097H25.5V16.0097H0.5V9.99097Z" fill="#F7F7F7"/>
<path d="M13 15.7777C14.5341 15.7777 15.7778 14.5341 15.7778 12.9999C15.7778 11.4658 14.5341 10.2222 13 10.2222C11.4659 10.2222 10.2222 11.4658 10.2222 12.9999C10.2222 14.5341 11.4659 15.7777 13 15.7777Z" fill="#000080"/>
<path d="M13 15.3438C14.2944 15.3438 15.3438 14.2944 15.3438 13C15.3438 11.7056 14.2944 10.6562 13 10.6562C11.7056 10.6562 10.6562 11.7056 10.6562 13C10.6562 14.2944 11.7056 15.3438 13 15.3438Z" fill="#F7F7F7"/>
<path d="M13.0694 12.132L13 12.5834L12.9305 12.132L13 10.7778L13.0694 12.132ZM12.425 10.8535L12.7083 12.1792L12.8924 12.5973L12.8424 12.1438L12.425 10.8535ZM11.8889 11.0757L12.5055 12.2827L12.7917 12.6389L12.6264 12.2132L11.8889 11.0757ZM11.4285 11.4285L12.3368 12.4355L12.7055 12.7056L12.4354 12.3369L11.4285 11.4285ZM11.0757 11.8889L12.2132 12.6264L12.6389 12.7917L12.2826 12.5056L11.0757 11.8889ZM10.8535 12.4251L12.1437 12.8424L12.5972 12.8924L12.1792 12.7084L10.8535 12.4251ZM10.7778 13.0001L12.1319 13.0695L12.5833 13.0001L12.1319 12.9306L10.7778 13.0001ZM10.8535 13.5751L12.1792 13.2917L12.5972 13.1077L12.1437 13.1577L10.8535 13.5751ZM11.0757 14.1112L12.2826 13.4945L12.6389 13.2084L12.2132 13.3737L11.0757 14.1112ZM11.4285 14.5716L12.4354 13.6632L12.7055 13.2945L12.3368 13.5646L11.4285 14.5716ZM11.8889 14.9244L12.6264 13.7869L12.7917 13.3612L12.5055 13.7174L11.8889 14.9244ZM12.425 15.1466L12.8424 13.8563L12.8924 13.4028L12.7083 13.8209L12.425 15.1466ZM13 15.2223L13.0694 13.8681L13 13.4167L12.9305 13.8681L13 15.2223ZM13.575 15.1466L13.2917 13.8209L13.1076 13.4028L13.1576 13.8563L13.575 15.1466ZM14.1111 14.9244L13.4944 13.7174L13.2083 13.3612L13.3736 13.7869L14.1111 14.9244ZM14.5715 14.5716L13.6632 13.5646L13.2944 13.2945L13.5646 13.6632L14.5715 14.5716ZM14.9243 14.1112L13.7868 13.3737L13.3611 13.2084L13.7174 13.4945L14.9243 14.1112ZM15.1465 13.5751L13.8562 13.1577L13.4028 13.1077L13.8208 13.2917L15.1465 13.5751ZM15.2222 13.0001L13.868 12.9306L13.4167 13.0001L13.868 13.0695L15.2222 13.0001ZM15.1465 12.4251L13.8208 12.7084L13.4028 12.8924L13.8562 12.8424L15.1465 12.4251ZM14.9243 11.8889L13.7174 12.5056L13.3611 12.7917L13.7868 12.6264L14.9243 11.8889ZM14.5715 11.4285L13.5646 12.3369L13.2944 12.7056L13.6632 12.4355L14.5715 11.4285ZM14.1111 11.0757L13.3736 12.2132L13.2083 12.6389L13.4944 12.2827L14.1111 11.0757ZM13.575 10.8535L13.1576 12.1438L13.1076 12.5973L13.2917 12.1792L13.575 10.8535Z" fill="#6666B3"/>
<path d="M12.6945 10.8188C12.7712 10.8188 12.8334 10.7566 12.8334 10.6799C12.8334 10.6032 12.7712 10.541 12.6945 10.541C12.6178 10.541 12.5556 10.6032 12.5556 10.6799C12.5556 10.7566 12.6178 10.8188 12.6945 10.8188Z" fill="#000080"/>
<path d="M12.1042 10.9771C12.1809 10.9771 12.2431 10.9149 12.2431 10.8382C12.2431 10.7615 12.1809 10.6993 12.1042 10.6993C12.0275 10.6993 11.9653 10.7615 11.9653 10.8382C11.9653 10.9149 12.0275 10.9771 12.1042 10.9771Z" fill="#000080"/>
<path d="M11.575 11.2819C11.6517 11.2819 11.7139 11.2197 11.7139 11.143C11.7139 11.0663 11.6517 11.0042 11.575 11.0042C11.4983 11.0042 11.4361 11.0663 11.4361 11.143C11.4361 11.2197 11.4983 11.2819 11.575 11.2819Z" fill="#000080"/>
<path d="M11.1431 11.7139C11.2198 11.7139 11.282 11.6518 11.282 11.575C11.282 11.4983 11.2198 11.4362 11.1431 11.4362C11.0664 11.4362 11.0042 11.4983 11.0042 11.575C11.0042 11.6518 11.0664 11.7139 11.1431 11.7139Z" fill="#000080"/>
<path d="M10.8382 12.2431C10.9149 12.2431 10.9771 12.1809 10.9771 12.1042C10.9771 12.0275 10.9149 11.9653 10.8382 11.9653C10.7615 11.9653 10.6993 12.0275 10.6993 12.1042C10.6993 12.1809 10.7615 12.2431 10.8382 12.2431Z" fill="#000080"/>
<path d="M10.6799 12.8333C10.7566 12.8333 10.8188 12.7711 10.8188 12.6944C10.8188 12.6177 10.7566 12.5555 10.6799 12.5555C10.6032 12.5555 10.541 12.6177 10.541 12.6944C10.541 12.7711 10.6032 12.8333 10.6799 12.8333Z" fill="#000080"/>
<path d="M10.6799 13.4445C10.7566 13.4445 10.8188 13.3823 10.8188 13.3056C10.8188 13.2289 10.7566 13.1667 10.6799 13.1667C10.6032 13.1667 10.541 13.2289 10.541 13.3056C10.541 13.3823 10.6032 13.4445 10.6799 13.4445Z" fill="#000080"/>
<path d="M10.8382 14.0347C10.9149 14.0347 10.9771 13.9726 10.9771 13.8958C10.9771 13.8191 10.9149 13.757 10.8382 13.757C10.7615 13.757 10.6993 13.8191 10.6993 13.8958C10.6993 13.9726 10.7615 14.0347 10.8382 14.0347Z" fill="#000080"/>
<path d="M11.1431 14.5639C11.2198 14.5639 11.282 14.5017 11.282 14.425C11.282 14.3483 11.2198 14.2861 11.1431 14.2861C11.0664 14.2861 11.0042 14.3483 11.0042 14.425C11.0042 14.5017 11.0664 14.5639 11.1431 14.5639Z" fill="#000080"/>
<path d="M11.575 14.9959C11.6517 14.9959 11.7139 14.9337 11.7139 14.857C11.7139 14.7803 11.6517 14.7181 11.575 14.7181C11.4983 14.7181 11.4361 14.7803 11.4361 14.857C11.4361 14.9337 11.4983 14.9959 11.575 14.9959Z" fill="#000080"/>
<path d="M12.1042 15.3007C12.1809 15.3007 12.2431 15.2385 12.2431 15.1618C12.2431 15.0851 12.1809 15.0229 12.1042 15.0229C12.0275 15.0229 11.9653 15.0851 11.9653 15.1618C11.9653 15.2385 12.0275 15.3007 12.1042 15.3007Z" fill="#000080"/>
<path d="M12.6945 15.4591C12.7712 15.4591 12.8334 15.3969 12.8334 15.3202C12.8334 15.2435 12.7712 15.1813 12.6945 15.1813C12.6178 15.1813 12.5556 15.2435 12.5556 15.3202C12.5556 15.3969 12.6178 15.4591 12.6945 15.4591Z" fill="#000080"/>
<path d="M13.3056 15.4591C13.3823 15.4591 13.4445 15.3969 13.4445 15.3202C13.4445 15.2435 13.3823 15.1813 13.3056 15.1813C13.2289 15.1813 13.1667 15.2435 13.1667 15.3202C13.1667 15.3969 13.2289 15.4591 13.3056 15.4591Z" fill="#000080"/>
<path d="M13.8958 15.3007C13.9726 15.3007 14.0347 15.2385 14.0347 15.1618C14.0347 15.0851 13.9726 15.0229 13.8958 15.0229C13.8191 15.0229 13.757 15.0851 13.757 15.1618C13.757 15.2385 13.8191 15.3007 13.8958 15.3007Z" fill="#000080"/>
<path d="M14.425 14.9959C14.5017 14.9959 14.5639 14.9337 14.5639 14.857C14.5639 14.7803 14.5017 14.7181 14.425 14.7181C14.3483 14.7181 14.2861 14.7803 14.2861 14.857C14.2861 14.9337 14.3483 14.9959 14.425 14.9959Z" fill="#000080"/>
<path d="M14.857 14.5639C14.9337 14.5639 14.9959 14.5017 14.9959 14.425C14.9959 14.3483 14.9337 14.2861 14.857 14.2861C14.7803 14.2861 14.7181 14.3483 14.7181 14.425C14.7181 14.5017 14.7803 14.5639 14.857 14.5639Z" fill="#000080"/>
<path d="M15.1618 14.0347C15.2385 14.0347 15.3007 13.9726 15.3007 13.8958C15.3007 13.8191 15.2385 13.757 15.1618 13.757C15.0851 13.757 15.0229 13.8191 15.0229 13.8958C15.0229 13.9726 15.0851 14.0347 15.1618 14.0347Z" fill="#000080"/>
<path d="M15.3202 13.4445C15.3969 13.4445 15.4591 13.3823 15.4591 13.3056C15.4591 13.2289 15.3969 13.1667 15.3202 13.1667C15.2435 13.1667 15.1813 13.2289 15.1813 13.3056C15.1813 13.3823 15.2435 13.4445 15.3202 13.4445Z" fill="#000080"/>
<path d="M15.3202 12.8333C15.3969 12.8333 15.4591 12.7711 15.4591 12.6944C15.4591 12.6177 15.3969 12.5555 15.3202 12.5555C15.2435 12.5555 15.1813 12.6177 15.1813 12.6944C15.1813 12.7711 15.2435 12.8333 15.3202 12.8333Z" fill="#000080"/>
<path d="M15.1618 12.2431C15.2385 12.2431 15.3007 12.1809 15.3007 12.1042C15.3007 12.0275 15.2385 11.9653 15.1618 11.9653C15.0851 11.9653 15.0229 12.0275 15.0229 12.1042C15.0229 12.1809 15.0851 12.2431 15.1618 12.2431Z" fill="#000080"/>
<path d="M14.857 11.7139C14.9337 11.7139 14.9959 11.6518 14.9959 11.575C14.9959 11.4983 14.9337 11.4362 14.857 11.4362C14.7803 11.4362 14.7181 11.4983 14.7181 11.575C14.7181 11.6518 14.7803 11.7139 14.857 11.7139Z" fill="#000080"/>
<path d="M14.425 11.2819C14.5017 11.2819 14.5639 11.2197 14.5639 11.143C14.5639 11.0663 14.5017 11.0042 14.425 11.0042C14.3483 11.0042 14.2861 11.0663 14.2861 11.143C14.2861 11.2197 14.3483 11.2819 14.425 11.2819Z" fill="#000080"/>
<path d="M13.8958 10.9771C13.9726 10.9771 14.0347 10.9149 14.0347 10.8382C14.0347 10.7615 13.9726 10.6993 13.8958 10.6993C13.8191 10.6993 13.757 10.7615 13.757 10.8382C13.757 10.9149 13.8191 10.9771 13.8958 10.9771Z" fill="#000080"/>
<path d="M13.3056 10.8188C13.3823 10.8188 13.4445 10.7566 13.4445 10.6799C13.4445 10.6032 13.3823 10.541 13.3056 10.541C13.2289 10.541 13.1667 10.6032 13.1667 10.6799C13.1667 10.7566 13.2289 10.8188 13.3056 10.8188Z" fill="#000080"/>
<path d="M13 13.625C13.3452 13.625 13.625 13.3452 13.625 13C13.625 12.6548 13.3452 12.375 13 12.375C12.6548 12.375 12.375 12.6548 12.375 13C12.375 13.3452 12.6548 13.625 13 13.625Z" fill="#000080"/>
</g>
<defs>
<clipPath id="clip0_3_463">
<rect width="25" height="25" fill="white" transform="translate(0.5 0.5)"/>
</clipPath>
</defs>
</svg>
