<svg width="34" height="33" viewBox="0 0 34 33" fill="none" xmlns="http://www.w3.org/2000/svg">
<g clip-path="url(#clip0_3_920)">
<path d="M14.1529 30.8731C14.3564 30.887 14.5478 30.9902 14.6877 31.1618C14.8276 31.3333 14.9055 31.5601 14.9055 31.7958C14.9055 32.0316 14.8276 32.2584 14.6877 32.4299C14.5478 32.6014 14.3564 32.7047 14.1529 32.7185C11.6861 32.7178 9.26234 31.9718 7.12188 30.5545C4.98143 29.1372 3.19862 27.0979 1.95019 24.6387C0.701771 22.1794 0.0310956 19.3858 0.00465826 16.5346C-0.0217791 13.6834 0.59694 10.8738 1.79948 8.38421C3.00201 5.89463 4.7466 3.8116 6.86028 2.34161C8.97396 0.871621 11.3833 0.0657382 13.8495 0.00385424C16.3157 -0.0580297 18.753 0.626235 20.9199 1.98881C23.0868 3.35138 24.908 5.34495 26.2028 7.77185L26.3716 6.81237C26.3823 6.69101 26.4146 6.57352 26.4665 6.46732C26.5184 6.36111 26.5888 6.2685 26.6732 6.19532C26.7577 6.12214 26.8543 6.06998 26.957 6.04213C27.0598 6.01429 27.1664 6.01136 27.2702 6.03353C27.374 6.0557 27.4726 6.10249 27.56 6.17095C27.6473 6.23941 27.7214 6.32806 27.7777 6.43129C27.8339 6.53452 27.871 6.6501 27.8866 6.77074C27.9022 6.89138 27.8961 7.01445 27.8685 7.1322L27.3151 10.2825C27.2929 10.3954 27.2517 10.5021 27.1937 10.5965C27.1358 10.6909 27.0623 10.7711 26.9775 10.8326C26.8927 10.8941 26.7982 10.9357 26.6994 10.9549C26.6007 10.9741 26.4996 10.9706 26.402 10.9446L23.7347 10.2345C23.5437 10.1767 23.3796 10.0352 23.2771 9.83996C23.1746 9.64477 23.1419 9.41117 23.1857 9.18855C23.2295 8.96593 23.3466 8.77174 23.512 8.64702C23.6775 8.52231 23.8784 8.47685 24.0723 8.52026L24.836 8.72495C23.6857 6.57136 22.0684 4.8027 20.1445 3.59435C18.2205 2.386 16.0568 1.77992 13.8677 1.83622C11.6787 1.89251 9.54035 2.60921 7.6648 3.91527C5.78926 5.22132 4.24162 7.07136 3.17535 9.28195C2.10908 11.4925 1.56121 13.9869 1.58607 16.5177C1.61092 19.0485 2.20763 21.5278 3.31704 23.7099C4.42644 25.8919 6.01 27.7009 7.91071 28.9574C9.81142 30.2139 11.9633 30.8743 14.1529 30.8731ZM19.6175 15.7932C19.6913 15.8609 19.7509 15.9469 19.7918 16.0449C19.8328 16.143 19.854 16.2504 19.854 16.3593C19.854 16.4681 19.8328 16.5756 19.7918 16.6736C19.7509 16.7716 19.6913 16.8577 19.6175 16.9254L18.2617 18.1343C18.1543 18.2299 18.0225 18.2816 17.887 18.2815C17.7514 18.2815 17.6197 18.2296 17.5123 18.1339C17.4049 18.0383 17.3279 17.9043 17.2933 17.7528C17.2587 17.6013 17.2685 17.4408 17.321 17.2964H15.5502C15.4283 17.5398 15.2605 17.7483 15.0591 17.9063C14.8578 18.0643 14.6283 18.1677 14.3875 18.2088C14.1468 18.2499 13.9012 18.2276 13.669 18.1436C13.4368 18.0596 13.2239 17.9161 13.0464 17.7237C12.8689 17.5314 12.7312 17.2952 12.6437 17.0328C12.5562 16.7703 12.5211 16.4884 12.541 16.2081C12.5609 15.9278 12.6354 15.6563 12.7588 15.4139C12.8821 15.1715 13.0513 14.9644 13.2536 14.8081L13.2813 11.4915C13.1556 11.558 13.0141 11.5734 12.8799 11.5351C12.7457 11.4968 12.6267 11.4071 12.5423 11.2806C12.4579 11.1541 12.413 10.9982 12.4151 10.8384C12.4171 10.6787 12.4659 10.5244 12.5536 10.4009L13.6299 8.85927C13.6852 8.78017 13.7546 8.71579 13.8334 8.67053C13.9122 8.62526 13.9985 8.60019 14.0865 8.59701C14.1849 8.59455 14.2824 8.61975 14.3706 8.67045C14.4588 8.72114 14.5351 8.79581 14.5928 8.88806L15.611 10.4872C15.6891 10.611 15.7304 10.7607 15.7288 10.9139C15.7273 11.0671 15.6828 11.2157 15.6022 11.3373C15.5216 11.4589 15.4091 11.5471 15.2815 11.5887C15.1539 11.6304 15.0181 11.6232 14.8944 11.5682L14.875 14.6994C15.1546 14.8623 15.3873 15.1156 15.5446 15.4286H17.3155C17.2585 15.2829 17.2457 15.1193 17.2791 14.9642C17.3126 14.8091 17.3903 14.6716 17.4998 14.5739C17.6093 14.4762 17.744 14.4241 17.8823 14.426C18.0206 14.4279 18.1543 14.4836 18.2617 14.5842L19.6175 15.7932ZM22.8106 24.7228L24.2217 29.0053L24.9328 26.6706L24.5842 26.226C24.3241 25.7846 24.4126 25.2665 24.8968 25.193C25.0718 25.1768 25.2476 25.1768 25.4226 25.193C25.6156 25.1789 25.8093 25.1875 26.0008 25.2185C26.4491 25.3337 26.4961 25.8358 26.2775 26.2388L25.9289 26.677L26.64 29.0117L27.9156 24.7292C28.8369 25.6887 31.3161 25.8806 32.3426 26.533C33.7482 27.4446 33.7095 28.8998 34.0028 30.5277C31.1999 33.758 19.6452 33.9019 16.7206 30.5213C17.0277 28.9222 16.9973 27.4222 18.3973 26.5267C19.6424 25.7239 21.7896 25.7846 22.8244 24.7228H22.8106ZM22.5505 21.8443C22.4296 21.8514 22.3096 21.8181 22.2046 21.7484C22.0553 21.6435 21.9397 21.4852 21.8753 21.2974C21.7232 20.904 21.5987 19.8678 21.986 19.5704L21.9141 19.516V19.4009C21.9141 19.193 21.8947 18.9403 21.892 18.6748C21.892 17.7154 21.8615 16.5192 21.1642 16.2825L20.8654 16.1802L21.0619 15.9083C21.5782 15.1725 22.1627 14.5043 22.805 13.9158C23.3868 13.3565 24.0817 12.9768 24.8249 12.8124C25.1699 12.7506 25.5224 12.7739 25.8591 12.8808C26.1958 12.9878 26.5091 13.1759 26.7783 13.4328C26.9706 13.611 27.1476 13.8103 27.3068 14.0277C27.6168 14.0645 27.9166 14.1757 28.1873 14.3541C28.4579 14.5326 28.6933 14.7743 28.8784 15.064C29.1096 15.4107 29.2823 15.8045 29.3876 16.2249C29.4999 16.6515 29.5467 17.0974 29.5259 17.5426C29.5035 18.3501 29.2109 19.1161 28.7097 19.6791C28.7982 19.6815 28.8851 19.7066 28.9642 19.7527C29.0851 19.8439 29.1739 19.9817 29.215 20.1417C29.256 20.3016 29.2466 20.4732 29.1883 20.6258C29.1136 20.8913 29.0168 21.2015 28.9255 21.4606C28.8176 21.8092 28.6488 21.8763 28.3444 21.838C27.6472 25.3561 23.4331 25.484 22.5505 21.838V21.8443ZM8.35614 6.32303C8.3064 6.23336 8.27293 6.13295 8.25776 6.02789C8.24259 5.92283 8.24603 5.8153 8.26787 5.71182C8.28972 5.60834 8.32952 5.51106 8.38485 5.42589C8.44019 5.34072 8.50991 5.26942 8.58979 5.21631C8.66967 5.16321 8.75805 5.12941 8.84957 5.11696C8.94109 5.10451 9.03384 5.11367 9.1222 5.14388C9.21057 5.17409 9.29271 5.22473 9.36364 5.29273C9.43457 5.36072 9.49282 5.44466 9.53486 5.53945L10.0412 6.5565C10.1329 6.73845 10.1584 6.95507 10.1119 7.1587C10.0655 7.36233 9.95097 7.53629 9.79356 7.64232C9.63616 7.74835 9.44876 7.77776 9.27259 7.72408C9.09642 7.6704 8.94592 7.53802 8.85419 7.35608L8.35614 6.32303ZM4.78958 11.0213C4.64306 10.9109 4.53876 10.7397 4.49816 10.543C4.45756 10.3463 4.48375 10.1391 4.57134 9.96408C4.65893 9.78906 4.80125 9.65951 4.96899 9.60214C5.13673 9.54476 5.31712 9.56391 5.47301 9.65565L6.36396 10.2345C6.44299 10.2852 6.5125 10.3536 6.56843 10.4356C6.62436 10.5177 6.6656 10.6118 6.68973 10.7124C6.71387 10.8131 6.72042 10.9183 6.709 11.022C6.69758 11.1256 6.66843 11.2255 6.62323 11.316C6.57804 11.4065 6.51771 11.4856 6.44577 11.5489C6.37383 11.6121 6.29172 11.6581 6.20423 11.6843C6.11673 11.7104 6.02561 11.7162 5.93617 11.7012C5.84673 11.6862 5.76076 11.6508 5.68329 11.597L4.80064 11.0117L4.78958 11.0213ZM3.73538 17.1461C3.55485 17.1461 3.38172 17.0632 3.25407 16.9156C3.12642 16.7681 3.05471 16.5679 3.05471 16.3593C3.05471 16.1506 3.12642 15.9505 3.25407 15.8029C3.38172 15.6554 3.55485 15.5725 3.73538 15.5725H4.75361C4.93413 15.5725 5.10726 15.6554 5.23491 15.8029C5.36256 15.9505 5.43427 16.1506 5.43427 16.3593C5.43427 16.5679 5.36256 16.7681 5.23491 16.9156C5.10726 17.0632 4.93413 17.1461 4.75361 17.1461H3.73538ZM5.47024 23.0597C5.31465 23.1519 5.13434 23.1713 4.96668 23.114C4.79902 23.0567 4.65687 22.927 4.5697 22.7518C4.48254 22.5766 4.45704 22.3694 4.49849 22.173C4.53994 21.9767 4.64516 21.8063 4.79234 21.6972L5.67223 21.1087C5.74962 21.0562 5.8352 21.0219 5.92409 21.0076C6.01297 20.9933 6.10342 20.9994 6.19026 21.0256C6.27711 21.0517 6.35865 21.0974 6.43023 21.1599C6.50181 21.2225 6.56203 21.3007 6.60745 21.3902C6.65287 21.4797 6.6826 21.5786 6.69494 21.6813C6.70729 21.7841 6.702 21.8886 6.67939 21.989C6.65678 22.0894 6.61729 22.1836 6.56317 22.2664C6.50904 22.3491 6.44135 22.4187 6.36396 22.4712L5.47024 23.0597ZM18.7709 5.53625C18.8615 5.35557 19.0105 5.22391 19.1851 5.17023C19.3597 5.11655 19.5456 5.14524 19.7019 5.25C19.8582 5.35476 19.9721 5.527 20.0186 5.72883C20.065 5.93066 20.0402 6.14555 19.9496 6.32623L19.4405 7.35608C19.395 7.44554 19.3348 7.52378 19.2632 7.58634C19.1917 7.6489 19.1101 7.69455 19.0233 7.72069C18.9364 7.74682 18.846 7.75293 18.7571 7.73866C18.6682 7.72439 18.5826 7.69003 18.5052 7.63753C18.4278 7.58503 18.3601 7.51542 18.306 7.43268C18.2519 7.34994 18.2124 7.25569 18.1898 7.1553C18.1672 7.05492 18.1619 6.95038 18.1742 6.84763C18.1866 6.74489 18.2163 6.64596 18.2617 6.5565L18.7709 5.53625ZM9.53486 27.1855C9.44459 27.3666 9.29579 27.4988 9.12118 27.5531C8.94657 27.6074 8.76046 27.5793 8.60378 27.4749C8.44711 27.3706 8.33271 27.1986 8.28575 26.9968C8.23879 26.7949 8.26312 26.5798 8.35338 26.3987L8.85419 25.3721C8.89907 25.2826 8.95875 25.2042 9.02982 25.1414C9.1009 25.0786 9.18198 25.0326 9.26844 25.006C9.3549 24.9795 9.44504 24.9728 9.53371 24.9865C9.62239 25.0002 9.70787 25.0339 9.78526 25.0858C9.86266 25.1377 9.93046 25.2067 9.98479 25.2888C10.0391 25.371 10.0789 25.4647 10.1019 25.5646C10.1249 25.6646 10.1306 25.7688 10.1188 25.8713C10.107 25.9738 10.0778 26.0726 10.0329 26.162L9.53486 27.1855ZM13.4722 4.3177C13.4832 4.11812 13.5596 3.93088 13.6858 3.79404C13.8119 3.65721 13.9785 3.58105 14.1515 3.58105C14.3245 3.58105 14.491 3.65721 14.6172 3.79404C14.7434 3.93088 14.8197 4.11812 14.8308 4.3177V5.49467C14.8367 5.602 14.8235 5.70959 14.7921 5.8108C14.7606 5.91201 14.7115 6.0047 14.6479 6.08313C14.5842 6.16156 14.5073 6.22407 14.4219 6.26681C14.3366 6.30954 14.2445 6.33159 14.1515 6.33159C14.0584 6.33159 13.9664 6.30954 13.881 6.26681C13.7956 6.22407 13.7187 6.16156 13.6551 6.08313C13.5914 6.0047 13.5423 5.91201 13.5109 5.8108C13.4794 5.70959 13.4663 5.602 13.4722 5.49467V4.3177ZM14.8335 28.3977C14.8335 28.6063 14.7618 28.8064 14.6342 28.954C14.5065 29.1015 14.3334 29.1844 14.1529 29.1844C13.9723 29.1844 13.7992 29.1015 13.6716 28.954C13.5439 28.8064 13.4722 28.6063 13.4722 28.3977V27.2239C13.4722 27.0152 13.5439 26.8151 13.6716 26.6675C13.7992 26.52 13.9723 26.4371 14.1529 26.4371C14.3334 26.4371 14.5065 26.52 14.6342 26.6675C14.7618 26.8151 14.8335 27.0152 14.8335 27.2239V28.3977Z" fill="#737B7B"/>
</g>
<defs>
<clipPath id="clip0_3_920">
<rect width="34" height="33" fill="white"/>
</clipPath>
</defs>
</svg>
